<svg xmlns="http://www.w3.org/2000/svg" viewBox="0 0 1000 880"><rect width="1000" height="880" fill="#f7f4eb"/><g font-family="sans-serif" fill="#294e50"><text x="50" y="45" font-size="28" font-weight="bold">CLASSROOM + STUDY HALL · REVISED LAYOUT</text><text x="50" y="78">Revised owner layout · North ↑ · 36 × 28 units</text><rect x="50" y="110" width="900" height="700" fill="#e1cfac" stroke="#526963"/><path d="M950 110V810" stroke="#74b5ca" stroke-width="8"/><rect x="602.5" y="110" width="345" height="490.00000000000006" rx="3" fill="#ceded6" stroke="#526963"/><text x="775" y="360" text-anchor="middle" font-size="12"></text><rect x="600.625" y="185" width="3.75" height="355" rx="3" fill="#a1b3a3" stroke="#526963"/><text x="602.5" y="367.5" text-anchor="middle" font-size="12">Partition</text><rect x="175" y="116.25" width="275" height="2.5" rx="3" fill="#fdfdf2" stroke="#526963"/><text x="312.5" y="122.50000000000001" text-anchor="middle" font-size="12">WHITEBOARD</text><rect x="262.5" y="171.25" width="100" height="37.5" rx="3" fill="#bd9972" stroke="#526963"/><text x="312.5" y="195" text-anchor="middle" font-size="12">Teacher desk</text><rect x="187.5" y="325" width="60" height="30" rx="3" fill="#bd9972" stroke="#526963"/><text x="217.49999999999997" y="345" text-anchor="middle" font-size="12">D1</text><rect x="207.49999999999997" y="353.75" width="20" height="17.5" rx="3" fill="#80a8ac" stroke="#526963"/><text x="217.49999999999997" y="367.5" text-anchor="middle" font-size="12"></text><rect x="187.5" y="415" width="60" height="30" rx="3" fill="#bd9972" stroke="#526963"/><text x="217.49999999999997" y="435" text-anchor="middle" font-size="12">D2</text><rect x="207.49999999999997" y="443.75" width="20" height="17.5" rx="3" fill="#80a8ac" stroke="#526963"/><text x="217.49999999999997" y="457.5" text-anchor="middle" font-size="12"></text><rect x="187.5" y="505" width="60" height="30" rx="3" fill="#bd9972" stroke="#526963"/><text x="217.49999999999997" y="525" text-anchor="middle" font-size="12">D3</text><rect x="207.49999999999997" y="533.75" width="20" height="17.5" rx="3" fill="#80a8ac" stroke="#526963"/><text x="217.49999999999997" y="547.5" text-anchor="middle" font-size="12"></text><rect x="282.5" y="325" width="60" height="30" rx="3" fill="#bd9972" stroke="#526963"/><text x="312.5" y="345" text-anchor="middle" font-size="12">D4</text><rect x="302.5" y="353.75" width="20" height="17.5" rx="3" fill="#80a8ac" stroke="#526963"/><text x="312.5" y="367.5" text-anchor="middle" font-size="12"></text><rect x="282.5" y="415" width="60" height="30" rx="3" fill="#bd9972" stroke="#526963"/><text x="312.5" y="435" text-anchor="middle" font-size="12">D5</text><rect x="302.5" y="443.75" width="20" height="17.5" rx="3" fill="#80a8ac" stroke="#526963"/><text x="312.5" y="457.5" text-anchor="middle" font-size="12"></text><rect x="282.5" y="505" width="60" height="30" rx="3" fill="#bd9972" stroke="#526963"/><text x="312.5" y="525" text-anchor="middle" font-size="12">D6</text><rect x="302.5" y="533.75" width="20" height="17.5" rx="3" fill="#80a8ac" stroke="#526963"/><text x="312.5" y="547.5" text-anchor="middle" font-size="12"></text><rect x="377.5" y="325" width="60" height="30" rx="3" fill="#bd9972" stroke="#526963"/><text x="407.5" y="345" text-anchor="middle" font-size="12">D7</text><rect x="397.49999999999994" y="353.75" width="20" height="17.5" rx="3" fill="#80a8ac" stroke="#526963"/><text x="407.5" y="367.5" text-anchor="middle" font-size="12"></text><rect x="377.5" y="415" width="60" height="30" rx="3" fill="#bd9972" stroke="#526963"/><text x="407.5" y="435" text-anchor="middle" font-size="12">D8</text><rect x="397.49999999999994" y="443.75" width="20" height="17.5" rx="3" fill="#80a8ac" stroke="#526963"/><text x="407.5" y="457.5" text-anchor="middle" font-size="12"></text><rect x="377.5" y="505" width="60" height="30" rx="3" fill="#bd9972" stroke="#526963"/><text x="407.5" y="525" text-anchor="middle" font-size="12">D9</text><rect x="397.49999999999994" y="533.75" width="20" height="17.5" rx="3" fill="#80a8ac" stroke="#526963"/><text x="407.5" y="547.5" text-anchor="middle" font-size="12"></text><rect x="631.25" y="137.5" width="87.5" height="20" rx="3" fill="#bd9972" stroke="#526963"/><text x="675" y="152.5" text-anchor="middle" font-size="12">Books</text><rect x="731.25" y="137.5" width="87.5" height="20" rx="3" fill="#bd9972" stroke="#526963"/><text x="775" y="152.5" text-anchor="middle" font-size="12">Articles</text><rect x="831.25" y="137.5" width="87.5" height="20" rx="3" fill="#bd9972" stroke="#526963"/><text x="875" y="152.5" text-anchor="middle" font-size="12">Reference</text><rect x="687.5" y="295" width="75" height="35" rx="3" fill="#bd9972" stroke="#526963"/><text x="725" y="317.5" text-anchor="middle" font-size="12">Reading 1</text><rect x="710.625" y="303" width="28.749999999999996" height="5" rx="3" fill="#263f4d" stroke="#526963"/><text x="725" y="310.5" text-anchor="middle" font-size="12">MP4</text><rect x="713.75" y="330" width="22.5" height="20" rx="3" fill="#80a8ac" stroke="#526963"/><text x="725" y="345" text-anchor="middle" font-size="12"></text><rect x="812.5" y="295" width="75" height="35" rx="3" fill="#bd9972" stroke="#526963"/><text x="850" y="317.5" text-anchor="middle" font-size="12">Reading 2</text><rect x="835.625" y="303" width="28.749999999999996" height="5" rx="3" fill="#263f4d" stroke="#526963"/><text x="850" y="310.5" text-anchor="middle" font-size="12">MP4</text><rect x="838.75" y="330" width="22.5" height="20" rx="3" fill="#80a8ac" stroke="#526963"/><text x="850" y="345" text-anchor="middle" font-size="12"></text><rect x="687.5" y="415" width="75" height="35" rx="3" fill="#bd9972" stroke="#526963"/><text x="725" y="437.5" text-anchor="middle" font-size="12">Reading 3</text><rect x="710.625" y="423" width="28.749999999999996" height="5" rx="3" fill="#263f4d" stroke="#526963"/><text x="725" y="430.5" text-anchor="middle" font-size="12">MP4</text><rect x="713.75" y="450" width="22.5" height="20" rx="3" fill="#80a8ac" stroke="#526963"/><text x="725" y="465" text-anchor="middle" font-size="12"></text><rect x="812.5" y="415" width="75" height="35" rx="3" fill="#bd9972" stroke="#526963"/><text x="850" y="437.5" text-anchor="middle" font-size="12">Reading 4</text><rect x="835.625" y="423" width="28.749999999999996" height="5" rx="3" fill="#263f4d" stroke="#526963"/><text x="850" y="430.5" text-anchor="middle" font-size="12">MP4</text><rect x="838.75" y="450" width="22.5" height="20" rx="3" fill="#80a8ac" stroke="#526963"/><text x="850" y="465" text-anchor="middle" font-size="12"></text><rect x="255.625" y="709.375" width="18.75" height="11.25" rx="3" fill="#80a8ac" stroke="#526963"/><text x="265" y="720" text-anchor="middle" font-size="12">Backpack</text><rect x="625" y="799.3750000000001" width="312.5" height="3.75" rx="3" fill="#bd9972" stroke="#526963"/><text x="781.25" y="806.25" text-anchor="middle" font-size="12">Notes · Schedules · Awards</text><rect x="456.25" y="760" width="87.5" height="50" rx="3" fill="#b3c7c7" stroke="#526963"/><text x="500" y="790" text-anchor="middle" font-size="12">ELEVATOR</text><text x="50" y="850">Elevator at the south center · East windows · Furniture and seats shown to scale</text></g></svg>